<svg data-v-0dd9719b="" version="1.0" xmlns="http://www.w3.org/2000/svg" xmlns:xlink="http://www.w3.org/1999/xlink" width="100%" height="100%" viewBox="0 0 340.000000 250.000000" preserveAspectRatio="xMidYMid meet" color-interpolation-filters="sRGB" style="margin: auto;"> <rect data-v-0dd9719b="" x="0" y="0" width="100%" height="100%" fill="#173058" fill-opacity="1" class="background"></rect> <rect data-v-0dd9719b="" x="0" y="0" width="100%" height="100%" fill="url(#watermark)" fill-opacity="1" class="watermarklayer"></rect> <g data-v-0dd9719b="" fill="#edb350" class="iconlinesvg-g iconlinesvg" transform="translate(53.65874886512756,106.35007858276367)"><g class="tp-name"><g transform="translate(0, 0)"><g data-gra="path-name" fill="#edb350" transform="scale(1)"><path d="M5.30 0Q4.60 0 4.13-0.47L4.13-0.47Q3.66-0.97 3.66-1.64L3.66-1.64L3.66-18.66Q3.66-19.34 4.13-19.80L4.13-19.80Q4.60-20.27 5.30-20.27L5.30-20.27L26.89-20.27Q29.74-20.27 31.73-22.29L31.73-22.29Q33.75-24.32 33.75-27.16L33.75-27.16Q33.75-30 31.73-32.02L31.73-32.02Q29.74-34.04 26.89-34.04L26.89-34.04L3.98-34.04Q3.31-34.04 2.81-34.51L2.81-34.51Q2.34-34.98 2.34-35.65L2.34-35.65Q2.34-36.33 2.81-36.83L2.81-36.83Q3.31-37.29 3.98-37.29L3.98-37.29L26.89-37.29Q31.08-37.29 34.04-34.34L34.04-34.34Q37.03-31.35 37.03-27.16L37.03-27.16Q37.03-22.97 34.04-19.98L34.04-19.98Q31.08-17.02 26.89-17.02L26.89-17.02L6.91-17.02L6.91-1.64Q6.91-0.97 6.45-0.47L6.45-0.47Q5.98 0 5.30 0L5.30 0Z" transform="translate(-2.34375, 37.294921875)"></path></g></g><g transform="translate(38, 0)"><g data-gra="path-name" fill="#edb350" transform="scale(1)"><path d="M26.89-20.27L5.63-20.27L5.63-34.04L26.89-34.04Q29.74-34.04 31.73-32.02L31.73-32.02Q33.75-30 33.75-27.16L33.75-27.16Q33.75-24.32 31.73-22.29L31.73-22.29Q29.74-20.27 26.89-20.27L26.89-20.27ZM31.67-18.22Q34.10-19.54 35.54-21.88L35.54-21.88Q37.03-24.32 37.03-27.16L37.03-27.16Q37.03-31.35 34.04-34.34L34.04-34.34Q31.08-37.29 26.89-37.29L26.89-37.29L3.98-37.29Q3.31-37.29 2.81-36.83L2.81-36.83Q2.34-36.33 2.34-35.65L2.34-35.65L2.34-1.64Q2.34-0.97 2.81-0.47L2.81-0.47Q3.31 0 3.98 0L3.98 0Q4.66 0 5.13-0.47L5.13-0.47Q5.63-0.97 5.63-1.64L5.63-1.64L5.63-17.02L24.93-17.02Q28.56-17.02 31.17-14.41L31.17-14.41Q33.75-11.84 33.75-8.17L33.75-8.17L33.75-1.64Q33.75-0.97 34.25-0.47L34.25-0.47Q34.72 0 35.39 0L35.39 0Q36.06 0 36.53-0.47L36.53-0.47Q37.03-0.97 37.03-1.64L37.03-1.64L37.03-8.17Q37.03-14.62 31.67-18.22L31.67-18.22Z" transform="translate(-2.34375, 37.294921875)"></path></g></g><g transform="translate(76, 0.2874967394299226)"><g><g class="imagesvg"><g><rect fill="#edb350" fill-opacity="0" stroke-width="2" x="0" y="0" width="42.3285302593666" height="36.719928396140155" class="image-rect"></rect> <svg x="0" y="0" width="42.3285302593666" height="36.719928396140155" filtersec="colorsb5035582152" class="image-svg-svg primary" style="overflow: visible;"><svg xmlns="http://www.w3.org/2000/svg" viewBox="0 0 100 86.75"><path fill="#d87857" d="M75.06 43.37L50.12 0 25.06 43.37 0 86.75h100L75.06 43.37zM19.52 63.73l10.12-17.59 10.24-17.59L50 10.84l20.36 35.3-50.84 17.59z"></path></svg></svg> <!----></g></g></g></g><g transform="translate(122, 0)"><g data-gra="path-name" fill="#edb350" transform="scale(1)"><path d="M35.39-37.29Q34.72-37.29 34.25-36.83L34.25-36.83Q33.75-36.33 33.75-35.65L33.75-35.65L33.75-23.88Q33.75-22.38 32.70-21.33L32.70-21.33Q31.64-20.27 30.15-20.27L30.15-20.27L9.23-20.27Q7.73-20.27 6.68-21.33L6.68-21.33Q5.63-22.38 5.63-23.88L5.63-23.88L5.63-35.65Q5.63-36.33 5.13-36.83L5.13-36.83Q4.66-37.29 3.98-37.29L3.98-37.29Q3.31-37.29 2.81-36.83L2.81-36.83Q2.34-36.33 2.34-35.65L2.34-35.65L2.34-23.88Q2.34-21.04 4.37-19.04L4.37-19.04Q6.39-17.02 9.23-17.02L9.23-17.02L30.15-17.02Q32.11-17.02 33.75-18.05L33.75-18.05L33.75-6.88Q33.75-5.39 32.70-4.34L32.70-4.34Q31.64-3.28 30.15-3.28L30.15-3.28L9.23-3.28Q7.73-3.28 6.68-4.34L6.68-4.34Q5.63-5.39 5.63-6.88L5.63-6.88L5.63-8.17Q5.63-8.85 5.13-9.35L5.13-9.35Q4.66-9.81 3.98-9.81L3.98-9.81Q3.31-9.81 2.81-9.35L2.81-9.35Q2.34-8.85 2.34-8.17L2.34-8.17L2.34-6.88Q2.34-4.04 4.37-2.02L4.37-2.02Q6.39 0 9.23 0L9.23 0L30.15 0Q32.99 0 35.01-2.02L35.01-2.02Q37.03-4.04 37.03-6.88L37.03-6.88L37.03-35.65Q37.03-36.33 36.53-36.83L36.53-36.83Q36.06-37.29 35.39-37.29L35.39-37.29Z" transform="translate(-2.34375, 37.294921875)"></path></g></g><g transform="translate(160, 0)"><g data-gra="path-name" fill="#edb350" transform="scale(1)"><path d="M33.75-20.27L5.63-20.27L5.63-25.20Q5.63-28.86 8.20-31.44L8.20-31.44Q10.81-34.04 14.44-34.04L14.44-34.04L24.93-34.04Q28.56-34.04 31.17-31.44L31.17-31.44Q33.75-28.86 33.75-25.20L33.75-25.20L33.75-20.27ZM24.93-37.29L14.44-37.29Q9.43-37.29 5.89-33.75L5.89-33.75Q2.34-30.21 2.34-25.20L2.34-25.20L2.34-1.64Q2.34-0.97 2.81-0.47L2.81-0.47Q3.31 0 3.98 0L3.98 0Q4.66 0 5.13-0.47L5.13-0.47Q5.63-0.97 5.63-1.64L5.63-1.64L5.63-17.02L33.75-17.02L33.75-1.64Q33.75-0.97 34.25-0.47L34.25-0.47Q34.72 0 35.39 0L35.39 0Q36.06 0 36.53-0.47L36.53-0.47Q37.03-0.97 37.03-1.64L37.03-1.64L37.03-25.20Q37.03-30.21 33.49-33.75L33.49-33.75Q29.94-37.29 24.93-37.29L24.93-37.29Z" transform="translate(-2.34375, 37.294921875)"></path></g></g><g transform="translate(198, 0)"><g data-gra="path-name" fill="#edb350" transform="scale(1)"><path d="M30.15 0L9.23 0Q6.39 0 4.37-2.02L4.37-2.02Q2.34-4.04 2.34-6.88L2.34-6.88L2.34-30.44Q2.34-33.28 4.37-35.27L4.37-35.27Q6.39-37.29 9.23-37.29L9.23-37.29L30.15-37.29Q32.99-37.29 35.01-35.27L35.01-35.27Q37.03-33.28 37.03-30.44L37.03-30.44L37.03-29.12Q37.03-28.45 36.53-27.95L36.53-27.95Q36.06-27.48 35.39-27.48L35.39-27.48Q34.72-27.48 34.25-27.95L34.25-27.95Q33.75-28.45 33.75-29.12L33.75-29.12L33.75-30.44Q33.75-31.90 32.70-32.96L32.70-32.96Q31.64-34.04 30.15-34.04L30.15-34.04L9.23-34.04Q7.73-34.04 6.68-32.96L6.68-32.96Q5.63-31.90 5.63-30.44L5.63-30.44L5.63-6.88Q5.63-5.39 6.68-4.34L6.68-4.34Q7.73-3.28 9.23-3.28L9.23-3.28L30.15-3.28Q31.64-3.28 32.70-4.34L32.70-4.34Q33.75-5.39 33.75-6.88L33.75-6.88L33.75-17.02L17.08-17.02Q16.38-17.02 15.91-17.49L15.91-17.49Q15.44-17.96 15.44-18.66L15.44-18.66Q15.44-19.34 15.91-19.80L15.91-19.80Q16.38-20.27 17.08-20.27L17.08-20.27L35.39-20.27Q36.06-20.27 36.53-19.80L36.53-19.80Q37.03-19.34 37.03-18.66L37.03-18.66L37.03-6.88Q37.03-4.04 35.01-2.02L35.01-2.02Q32.99 0 30.15 0L30.15 0Z" transform="translate(-2.34375, 37.294921875)"></path></g></g></g> <!----></g><defs v-gra="od"></defs></svg>