<svg data-v-0dd9719b="" version="1.0" xmlns="http://www.w3.org/2000/svg" xmlns:xlink="http://www.w3.org/1999/xlink" width="100%" height="100%" viewBox="0 0 340.000000 250.000000" preserveAspectRatio="xMidYMid meet" color-interpolation-filters="sRGB" style="margin: auto;"> <rect data-v-0dd9719b="" x="0" y="0" width="100%" height="100%" fill="#feffff" fill-opacity="1" class="background"></rect> <rect data-v-0dd9719b="" x="0" y="0" width="100%" height="100%" fill="url(#watermark)" fill-opacity="1" class="watermarklayer"></rect> <g data-v-0dd9719b="" fill="#3D85C6" class="iconlinesvg-g iconlinesvg" transform="translate(80.58999633789062,98.5999984741211)"><g class="tp-name"><g transform="translate(0, 0)"><g data-gra="path-name" fill="#3D85C6" transform="scale(1)"><path d="M5.40-39.36L5.40 0L10.38 0L10.38-15.60L17.46-15.60C19.62-15.60 21.59-15.85 23.37-16.35C25.15-16.85 26.68-17.60 27.96-18.60C29.24-19.60 30.23-20.86 30.93-22.38C31.63-23.90 31.98-25.70 31.98-27.78C31.98-29.94 31.63-31.76 30.93-33.24C30.23-34.72 29.25-35.91 27.99-36.81C26.73-37.71 25.20-38.36 23.40-38.76C21.60-39.16 19.62-39.36 17.46-39.36ZM16.86-19.68L10.38-19.68L10.38-35.34L16.86-35.34C20.26-35.34 22.80-34.79 24.48-33.69C26.16-32.59 27-30.62 27-27.78C27-24.98 26.17-22.93 24.51-21.63C22.85-20.33 20.30-19.68 16.86-19.68Z" transform="translate(-5.3999999999999995, 39.36)"></path></g></g><g transform="translate(30, 0)"><g data-gra="path-name" fill="#3D85C6" transform="scale(1)"><path d="M4.92-29.16L4.92 0L9.84 0L9.84-18.72C10.84-21.20 12.01-22.94 13.35-23.94C14.69-24.94 15.98-25.44 17.22-25.44C17.82-25.44 18.32-25.40 18.72-25.32C19.12-25.24 19.56-25.12 20.04-24.96L21-29.28C20.08-29.68 19.04-29.88 17.88-29.88C16.20-29.88 14.65-29.34 13.23-28.26C11.81-27.18 10.60-25.72 9.60-23.88L9.42-23.88L9-29.16Z" transform="translate(-4.92, 39.36)"></path></g></g><g transform="translate(50, 8.040035801929921)"><g><g class="imagesvg"><g><rect fill="#3D85C6" fill-opacity="0" stroke-width="2" x="0" y="0" width="42.3285302593666" height="36.719928396140155" class="image-rect"></rect> <svg x="0" y="0" width="42.3285302593666" height="36.719928396140155" filtersec="colorsb3828897307" class="image-svg-svg primary" style="overflow: visible;"><svg xmlns="http://www.w3.org/2000/svg" viewBox="0 0 100 86.75"><path fill="#3D85C6" d="M75.06 43.37L50.12 0 25.06 43.37 0 86.75h100L75.06 43.37zM19.52 63.73l10.12-17.59 10.24-17.59L50 10.84l20.36 35.3-50.84 17.59z"></path></svg></svg> <!----></g></g></g></g><g transform="translate(96, 0)"><g data-gra="path-name" fill="#3D85C6" transform="scale(1)"><path d="M2.94 8.04L2.94 8.04L1.98 11.94C2.46 12.14 2.98 12.29 3.54 12.39C4.10 12.49 4.72 12.54 5.40 12.54C6.88 12.54 8.18 12.28 9.30 11.76C10.42 11.24 11.42 10.53 12.30 9.63C13.18 8.73 13.94 7.66 14.58 6.42C15.22 5.18 15.80 3.84 16.32 2.40L27.30-29.16L22.50-29.16L17.28-13.02C16.88-11.74 16.48-10.38 16.08-8.94C15.68-7.50 15.26-6.12 14.82-4.80L14.58-4.80C14.14-6.16 13.67-7.55 13.17-8.97C12.67-10.39 12.20-11.74 11.76-13.02L5.82-29.16L0.72-29.16L12.42 0.06L11.76 2.22C11.16 4.02 10.33 5.51 9.27 6.69C8.21 7.87 6.84 8.46 5.16 8.46C4.80 8.46 4.42 8.41 4.02 8.31Z" transform="translate(-0.72, 39.36)"></path></g></g><g transform="translate(126, 0)"><g data-gra="path-name" fill="#3D85C6" transform="scale(1)"><path d="M3.48-7.56C3.48-4.92 4.29-2.88 5.91-1.44C7.53 0 9.58 0.72 12.06 0.72C13.86 0.72 15.57 0.31 17.19-0.51C18.81-1.33 20.32-2.32 21.72-3.48L21.84-3.48L22.26 0L26.34 0L26.34-17.88C26.34-21.52 25.54-24.43 23.94-26.61C22.34-28.79 19.76-29.88 16.20-29.88C13.84-29.88 11.68-29.47 9.72-28.65C7.76-27.83 6.10-26.98 4.74-26.10L6.72-22.68C7.88-23.48 9.19-24.20 10.65-24.84C12.11-25.48 13.70-25.80 15.42-25.80C16.62-25.80 17.60-25.59 18.36-25.17C19.12-24.75 19.73-24.20 20.19-23.52C20.65-22.84 20.97-22.06 21.15-21.18C21.33-20.30 21.42-19.40 21.42-18.48C15.18-17.80 10.63-16.61 7.77-14.91C4.91-13.21 3.48-10.76 3.48-7.56ZM8.34-7.92C8.34-8.84 8.56-9.69 9-10.47C9.44-11.25 10.17-11.94 11.19-12.54C12.21-13.14 13.56-13.66 15.24-14.10C16.92-14.54 18.98-14.92 21.42-15.24L21.42-7.14C20.02-5.86 18.69-4.89 17.43-4.23C16.17-3.57 14.84-3.24 13.44-3.24C12-3.24 10.79-3.60 9.81-4.32C8.83-5.04 8.34-6.24 8.34-7.92Z" transform="translate(-3.48, 39.36)"></path></g></g><g transform="translate(152, 0)"><g data-gra="path-name" fill="#3D85C6" transform="scale(1)"><path d="M7.02 4.92C7.02 4.08 7.26 3.24 7.74 2.40C8.22 1.56 8.98 0.76 10.02 0C10.66 0.20 11.31 0.33 11.97 0.39C12.63 0.45 13.24 0.48 13.80 0.48L18.84 0.48C20.76 0.48 22.22 0.74 23.22 1.26C24.22 1.78 24.72 2.72 24.72 4.08C24.72 4.84 24.50 5.58 24.06 6.30C23.62 7.02 23.00 7.65 22.20 8.19C21.40 8.73 20.43 9.17 19.29 9.51C18.15 9.85 16.88 10.02 15.48 10.02C12.84 10.02 10.77 9.56 9.27 8.64C7.77 7.72 7.02 6.48 7.02 4.92ZM2.70 5.58C2.70 6.86 2.99 7.98 3.57 8.94C4.15 9.90 4.97 10.72 6.03 11.40C7.09 12.08 8.36 12.59 9.84 12.93C11.32 13.27 12.96 13.44 14.76 13.44C17.04 13.44 19.09 13.17 20.91 12.63C22.73 12.09 24.28 11.36 25.56 10.44C26.84 9.52 27.82 8.45 28.50 7.23C29.18 6.01 29.52 4.72 29.52 3.36C29.52 0.92 28.67-0.85 26.97-1.95C25.27-3.05 22.72-3.60 19.32-3.60L13.68-3.60C11.68-3.60 10.32-3.90 9.60-4.50C8.88-5.10 8.52-5.86 8.52-6.78C8.52-7.58 8.70-8.25 9.06-8.79C9.42-9.33 9.86-9.82 10.38-10.26C11.06-9.94 11.78-9.69 12.54-9.51C13.30-9.33 14.04-9.24 14.76-9.24C16.24-9.24 17.63-9.48 18.93-9.96C20.23-10.44 21.36-11.11 22.32-11.97C23.28-12.83 24.04-13.89 24.60-15.15C25.16-16.41 25.44-17.82 25.44-19.38C25.44-20.62 25.21-21.76 24.75-22.80C24.29-23.84 23.72-24.70 23.04-25.38L29.04-25.38L29.04-29.16L18.90-29.16C18.34-29.36 17.71-29.53 17.01-29.67C16.31-29.81 15.56-29.88 14.76-29.88C13.28-29.88 11.87-29.64 10.53-29.16C9.19-28.68 8.02-27.99 7.02-27.09C6.02-26.19 5.23-25.10 4.65-23.82C4.07-22.54 3.78-21.10 3.78-19.50C3.78-17.74 4.17-16.19 4.95-14.85C5.73-13.51 6.60-12.44 7.56-11.64L7.56-11.40C6.80-10.88 6.08-10.16 5.40-9.24C4.72-8.32 4.38-7.24 4.38-6C4.38-4.84 4.63-3.87 5.13-3.09C5.63-2.31 6.24-1.70 6.96-1.26L6.96-1.02C5.64-0.10 4.60 0.92 3.84 2.04C3.08 3.16 2.70 4.34 2.70 5.58ZM14.76-12.54C13.92-12.54 13.13-12.70 12.39-13.02C11.65-13.34 10.99-13.80 10.41-14.40C9.83-15 9.38-15.73 9.06-16.59C8.74-17.45 8.58-18.42 8.58-19.50C8.58-21.66 9.18-23.33 10.38-24.51C11.58-25.69 13.04-26.28 14.76-26.28C16.48-26.28 17.94-25.69 19.14-24.51C20.34-23.33 20.94-21.66 20.94-19.50C20.94-18.42 20.78-17.45 20.46-16.59C20.14-15.73 19.69-15 19.11-14.40C18.53-13.80 17.87-13.34 17.13-13.02C16.39-12.70 15.60-12.54 14.76-12.54Z" transform="translate(-2.6999999999999997, 39.36)"></path></g></g></g> <!----></g><defs v-gra="od"></defs></svg>